<?xml version="1.0" standalone="no"?>
<!DOCTYPE svg PUBLIC "-//W3C//DTD SVG 20010904//EN"
 "http://www.w3.org/TR/2001/REC-SVG-20010904/DTD/svg10.dtd">
<svg version="1.0" xmlns="http://www.w3.org/2000/svg"
 width="260.000000pt" height="260.000000pt" viewBox="0 0 260.000000 260.000000"
 preserveAspectRatio="xMidYMid meet">
<metadata>
Created by potrace 1.14, written by Peter Selinger 2001-2017
</metadata>
<g transform="translate(0.000000,260.000000) scale(0.100000,-0.100000)"
fill="#000000" stroke="none">
<path d="M1085 2324 c-18 -55 -386 -926 -403 -952 -15 -23 -57 -49 -102 -63
-14 -4 40 -7 125 -8 134 0 147 1 119 13 -58 25 -57 41 7 205 l51 131 200 -2
201 -3 50 -138 c46 -124 49 -139 37 -162 -8 -14 -27 -29 -44 -34 -22 -7 8 -9
106 -10 l136 -1 21 -33 c11 -19 94 -102 185 -185 92 -85 170 -166 180 -186 18
-39 21 -111 5 -153 -52 -137 -274 -166 -353 -46 -24 36 -50 129 -40 145 2 3 0
9 -5 12 -14 9 -23 -23 -28 -110 l-6 -80 32 -27 c44 -37 131 -60 222 -59 120 1
193 41 244 133 25 46 29 65 30 129 0 114 -17 139 -204 310 -87 80 -170 163
-185 185 -45 68 -31 164 33 218 61 51 149 57 217 16 31 -19 64 -72 64 -103 0
-9 5 -16 10 -16 7 0 10 32 8 88 l-3 87 -97 9 c-54 4 -118 5 -142 2 -112 -17
-198 -124 -198 -246 l0 -63 -29 29 c-20 21 -85 164 -224 499 -108 259 -201
474 -206 479 -5 6 -11 2 -14 -10z m89 -395 l84 -224 -89 -3 c-49 -1 -129 -1
-177 0 l-88 3 89 228 c50 125 92 226 94 224 1 -2 41 -104 87 -228z"/>
</g>
</svg>
